<mxfile host="app.diagrams.net" agent="Mozilla/5.0 (Windows NT 10.0; Win64; x64) AppleWebKit/537.36 (KHTML, like Gecko) Chrome/131.0.0.0 Safari/537.36" version="26.0.6">
  <diagram name="Page-1" id="6YHLERJcatcklHJie1yG">
    <mxGraphModel dx="1290" dy="557" grid="1" gridSize="10" guides="1" tooltips="1" connect="1" arrows="1" fold="1" page="1" pageScale="1" pageWidth="850" pageHeight="1100" math="0" shadow="0">
      <root>
        <mxCell id="0" />
        <mxCell id="1" parent="0" />
        <mxCell id="AoiX-MQDBQ31V0BbeJ8X-1" value="" style="rounded=0;html=1;jettySize=auto;orthogonalLoop=1;fontSize=11;endArrow=block;endFill=0;endSize=8;strokeWidth=1;shadow=0;labelBackgroundColor=none;edgeStyle=orthogonalEdgeStyle;exitX=0.5;exitY=1;exitDx=0;exitDy=0;entryX=0.5;entryY=0;entryDx=0;entryDy=0;" parent="1" source="AoiX-MQDBQ31V0BbeJ8X-2" target="AoiX-MQDBQ31V0BbeJ8X-5" edge="1">
          <mxGeometry relative="1" as="geometry">
            <mxPoint x="429.5" y="127" as="sourcePoint" />
            <mxPoint x="429.5" y="177" as="targetPoint" />
            <Array as="points" />
          </mxGeometry>
        </mxCell>
        <mxCell id="AoiX-MQDBQ31V0BbeJ8X-2" value="&lt;b&gt;Тапетарија&lt;/b&gt;" style="rounded=1;whiteSpace=wrap;html=1;fontSize=12;glass=0;strokeWidth=1;shadow=0;" parent="1" vertex="1">
          <mxGeometry x="370" y="107" width="120" height="40" as="geometry" />
        </mxCell>
        <mxCell id="AoiX-MQDBQ31V0BbeJ8X-5" value="Кроење" style="rounded=1;whiteSpace=wrap;html=1;fontSize=12;glass=0;strokeWidth=1;shadow=0;" parent="1" vertex="1">
          <mxGeometry x="370" y="170" width="120" height="40" as="geometry" />
        </mxCell>
        <mxCell id="AoiX-MQDBQ31V0BbeJ8X-17" value="Шиење" style="rounded=1;whiteSpace=wrap;html=1;fontSize=12;glass=0;strokeWidth=1;shadow=0;" parent="1" vertex="1">
          <mxGeometry x="370" y="229" width="120" height="40" as="geometry" />
        </mxCell>
        <mxCell id="AoiX-MQDBQ31V0BbeJ8X-18" value="" style="rounded=0;html=1;jettySize=auto;orthogonalLoop=1;fontSize=11;endArrow=block;endFill=0;endSize=8;strokeWidth=1;shadow=0;labelBackgroundColor=none;edgeStyle=orthogonalEdgeStyle;entryX=0.5;entryY=0;entryDx=0;entryDy=0;exitX=0.5;exitY=1;exitDx=0;exitDy=0;" parent="1" source="AoiX-MQDBQ31V0BbeJ8X-5" target="AoiX-MQDBQ31V0BbeJ8X-17" edge="1">
          <mxGeometry relative="1" as="geometry">
            <mxPoint x="620" y="210" as="sourcePoint" />
            <mxPoint x="430" y="229" as="targetPoint" />
            <Array as="points" />
          </mxGeometry>
        </mxCell>
        <mxCell id="AoiX-MQDBQ31V0BbeJ8X-19" value="Лепење" style="rounded=1;whiteSpace=wrap;html=1;fontSize=12;glass=0;strokeWidth=1;shadow=0;" parent="1" vertex="1">
          <mxGeometry x="370" y="288" width="120" height="40" as="geometry" />
        </mxCell>
        <mxCell id="AoiX-MQDBQ31V0BbeJ8X-20" value="" style="rounded=0;html=1;jettySize=auto;orthogonalLoop=1;fontSize=11;endArrow=block;endFill=0;endSize=8;strokeWidth=1;shadow=0;labelBackgroundColor=none;edgeStyle=orthogonalEdgeStyle;entryX=0.5;entryY=0;entryDx=0;entryDy=0;exitX=0.5;exitY=1;exitDx=0;exitDy=0;" parent="1" source="AoiX-MQDBQ31V0BbeJ8X-17" target="AoiX-MQDBQ31V0BbeJ8X-19" edge="1">
          <mxGeometry relative="1" as="geometry">
            <mxPoint x="680" y="289" as="sourcePoint" />
            <mxPoint x="430" y="288" as="targetPoint" />
            <Array as="points" />
          </mxGeometry>
        </mxCell>
        <mxCell id="AoiX-MQDBQ31V0BbeJ8X-21" value="Тапацирање" style="rounded=1;whiteSpace=wrap;html=1;fontSize=12;glass=0;strokeWidth=1;shadow=0;" parent="1" vertex="1">
          <mxGeometry x="370" y="346" width="120" height="40" as="geometry" />
        </mxCell>
        <mxCell id="AoiX-MQDBQ31V0BbeJ8X-22" value="Склопување" style="rounded=1;whiteSpace=wrap;html=1;fontSize=12;glass=0;strokeWidth=1;shadow=0;" parent="1" vertex="1">
          <mxGeometry x="370" y="405" width="120" height="40" as="geometry" />
        </mxCell>
        <mxCell id="AoiX-MQDBQ31V0BbeJ8X-23" value="" style="rounded=0;html=1;jettySize=auto;orthogonalLoop=1;fontSize=11;endArrow=block;endFill=0;endSize=8;strokeWidth=1;shadow=0;labelBackgroundColor=none;edgeStyle=orthogonalEdgeStyle;exitX=0.5;exitY=1;exitDx=0;exitDy=0;entryX=0.5;entryY=0;entryDx=0;entryDy=0;" parent="1" source="AoiX-MQDBQ31V0BbeJ8X-21" target="AoiX-MQDBQ31V0BbeJ8X-22" edge="1">
          <mxGeometry relative="1" as="geometry">
            <mxPoint x="320" y="405" as="sourcePoint" />
            <mxPoint x="430" y="405" as="targetPoint" />
            <Array as="points" />
          </mxGeometry>
        </mxCell>
        <mxCell id="AoiX-MQDBQ31V0BbeJ8X-24" value="Пакување" style="rounded=1;whiteSpace=wrap;html=1;fontSize=12;glass=0;strokeWidth=1;shadow=0;" parent="1" vertex="1">
          <mxGeometry x="370" y="464" width="120" height="40" as="geometry" />
        </mxCell>
        <mxCell id="AoiX-MQDBQ31V0BbeJ8X-25" value="" style="rounded=0;html=1;jettySize=auto;orthogonalLoop=1;fontSize=11;endArrow=block;endFill=0;endSize=8;strokeWidth=1;shadow=0;labelBackgroundColor=none;edgeStyle=orthogonalEdgeStyle;entryX=0.5;entryY=0;entryDx=0;entryDy=0;exitX=0.5;exitY=1;exitDx=0;exitDy=0;" parent="1" source="AoiX-MQDBQ31V0BbeJ8X-22" target="AoiX-MQDBQ31V0BbeJ8X-24" edge="1">
          <mxGeometry relative="1" as="geometry">
            <mxPoint x="680" y="465" as="sourcePoint" />
            <mxPoint x="430" y="464" as="targetPoint" />
            <Array as="points" />
          </mxGeometry>
        </mxCell>
        <mxCell id="AoiX-MQDBQ31V0BbeJ8X-26" value="" style="rounded=0;html=1;jettySize=auto;orthogonalLoop=1;fontSize=11;endArrow=block;endFill=0;endSize=8;strokeWidth=1;shadow=0;labelBackgroundColor=none;edgeStyle=orthogonalEdgeStyle;exitX=0.5;exitY=1;exitDx=0;exitDy=0;entryX=0.5;entryY=0;entryDx=0;entryDy=0;" parent="1" source="AoiX-MQDBQ31V0BbeJ8X-19" target="AoiX-MQDBQ31V0BbeJ8X-21" edge="1">
          <mxGeometry relative="1" as="geometry">
            <mxPoint x="430" y="330" as="sourcePoint" />
            <mxPoint x="430" y="349" as="targetPoint" />
            <Array as="points" />
          </mxGeometry>
        </mxCell>
        <mxCell id="AoiX-MQDBQ31V0BbeJ8X-27" value="Транспорт" style="rounded=1;whiteSpace=wrap;html=1;fontSize=12;glass=0;strokeWidth=1;shadow=0;" parent="1" vertex="1">
          <mxGeometry x="370" y="523" width="120" height="40" as="geometry" />
        </mxCell>
        <mxCell id="AoiX-MQDBQ31V0BbeJ8X-28" value="" style="rounded=0;html=1;jettySize=auto;orthogonalLoop=1;fontSize=11;endArrow=block;endFill=0;endSize=8;strokeWidth=1;shadow=0;labelBackgroundColor=none;edgeStyle=orthogonalEdgeStyle;entryX=0.5;entryY=0;entryDx=0;entryDy=0;exitX=0.5;exitY=1;exitDx=0;exitDy=0;" parent="1" source="AoiX-MQDBQ31V0BbeJ8X-24" target="AoiX-MQDBQ31V0BbeJ8X-27" edge="1">
          <mxGeometry relative="1" as="geometry">
            <mxPoint x="600" y="520" as="sourcePoint" />
            <mxPoint x="430" y="523" as="targetPoint" />
            <Array as="points" />
          </mxGeometry>
        </mxCell>
      </root>
    </mxGraphModel>
  </diagram>
</mxfile>
